<svg version="1.1" id="Capa_1" xmlns="http://www.w3.org/2000/svg" x="0" y="0" viewBox="0 0 512 512" xml:space="preserve"><style>.st0{fill:#999;stroke:#fff;stroke-width:8;stroke-miterlimit:10}.st2{fill:#ccc}.st3,.st9{stroke:#000;stroke-miterlimit:10}.st9{fill:#fff;stroke:gray}.st11{font-family:&apos;ArialMT&apos;}.st12{font-size:18.146px}</style><path class="st0" d="M81.8 8h346.5C464 8 493 37.6 493 74.4v235.1c0 36.7-29 66.4-64.8 66.4H81.8C46 375.8 17 346.2 17 309.5V74.4C17 37.8 46 8 81.8 8z"/><path d="M91.9 54.7h309.8c27.8 0 50.4 25.4 50.4 56.7v171h0H57.7h0V93.2c0-21.1 15.3-38.3 34.2-38.5h0z" fill="#f55" stroke="#fff" stroke-width="8" stroke-miterlimit="10"/><path class="st2" d="M27.2 277.6H483c2.6 0 4.8 1.9 4.8 4.2v32.4c0 30.4-27.9 55.2-62.4 55.2H80.7c-32.2 0-58.4-23-58.4-51.5v-36.1c.1-2.3 2.3-4.2 4.9-4.2z"/><path class="st3" d="M175.9 191.3l44.4-20c3.2-1.4 6.8.3 8 3.9.1.3.1.5.3.8 1.2 4-.6 8.5-4.2 10.3l-44.2 20c-3.2 1.4-6.8-.3-8-3.9-.1-.3-.1-.6-.3-.8-1.2-4.2.5-8.5 4-10.3z"/><path class="st3" d="M187.3 146.7l38 23.2c3.2 2.3 4.4 6.9 2.8 10.8-1.3 3.7-5.1 5.3-8.3 3.9-.1 0-.3-.2-.6-.3l-38-23.2c-3.3-2.3-4.5-6.9-2.8-10.8 1.3-3.7 5.1-5.5 8.4-3.9.2.1.3.1.5.3zm-66.7 12.7L80 187.3c-2.9 1.9-6.8 1-8.6-2.4-.1-.3-.3-.5-.3-.8-1.7-3.9-.7-8.5 2.5-11l40.6-27.9c2.9-1.9 6.8-1 8.6 2.4.1.3.3.5.3.8 1.9 3.9.7 8.6-2.5 11z"/><path class="st3" d="M116.2 205.3l-40.9-15.9c-3.6-1.6-5.4-6-4.2-10.1.7-3.9 4.2-6.3 7.7-5.5.1 0 .4.2.6.2l40.9 15.9c3.6 1.6 5.4 6 4.2 10.1-.7 3.9-4.2 6.3-7.7 5.5-.3 0-.4 0-.6-.2zm56.1-78.1l-31.6 95.2c-1.2 3.5-4.7 5.3-7.9 4-3.2-1.3-4.8-5.2-3.6-8.7l31.6-95.2c1.2-3.5 4.7-5.3 7.9-4 3.1 1.4 4.7 5.3 3.6 8.7z"/><path d="M256.4 60.3h145.8c24.7 0 44.8 22.2 44.8 49.6v167.8H256.4V60.3z" fill="#1e1e1e"/><path fill="none" stroke="#fff" stroke-width="7" stroke-miterlimit="10" d="M17 281.8l475.9-3.2"/><path fill="none" d="M297 145.7h41.6v.8H297z"/><path d="M381.1 491H128.6h0c0-27.4 20.1-49.6 44.8-49.6h163c24.6 0 44.7 22.2 44.7 49.6h0z" fill="#ccc" stroke="#fff" stroke-width="8" stroke-miterlimit="10"/><path class="st0" d="M213.5 377.5l-15.9 63.6H316l-19.9-63.6z"/><ellipse cx="257.5" cy="330.1" rx="34.9" ry="29" fill="#1e1e1e" stroke="#fff" stroke-miterlimit="10"/><path class="st9" d="M265 316.4l-.3-.3-.3-.2-.1-.3h-.3l-.3-.2-.3-.2-.3-.2h-.1l-.3-.2h-.3l-.3-.2h-.4l-.3-.2H246l-.4-.2-.6-.2-.3-.2-.3-.3-.3-.3-.1-.3-.1-.3v-1.5l.1-.3.1-.3.1-.3.3-.3.3-.2.4-.2.7-.2h15.9l.6.2h.9l.7.2 1 .3.6.3.9.3.9.3.6.5.6.3.7.6.9.8.4.3.4.6.7 1 .4.8.4.8.3.8.1.8.1.8.1 1v2.4l-.3 1.4-.4 1.3-.4 1-.6 1-.4.8-.7.8-.9.8-1.3 1.1-1.5.8-1.5.8-1.5.3-1 .3-1.3.2h-15.8l-.3-.2-.4-.2-.4-.3-.3-.3-.3-.3-.1-.5v-1.1l.1-.6.3-.5.4-.6.6-.3.9-.2h12.1l1.7.2h1.5c.4-.2 1-.5 1.5-.6.7-.3 1.5-.8 2.3-1.3.6-.3 1-.8 1.5-1.1.3-1.4.7-2.9 1-4.3-.4-1.1-.7-2.4-1.2-3.5-.4-.1-.8-.6-1.4-.9zm-21.3 18.7l1.8.8h3.5v13.4l-.6.8-.9.8h-2.3l-.5-.8-.4-.5-.1-.8v-11.3l-.5-1.4"/><path class="st9" d="M244.2 316.7l1.2.5h3.6v8.8h-3.5l-1.7.6.4-2.3v-7.6zm16.8 19.2l2.6 3.7 2.5 3.4 2.2 3.1 2.5 3.4 1 1 1.2.5h1.2l.9-.8.9-1.1v-1.3l-1.6-1.9-1.5-1.9-1.5-2.3-1.2-1.8-2.5-3.5-.6-1.1-.4-.5c-.1.3-.4.6-.6 1.1-.7.2-1.3.3-2 .5-.6-.2-1.2-.3-1.7-.6"/><text transform="matrix(.8902 0 0 1 264.82 151.758)" class="st11 st12" fill="#bdccd4">1</text><text transform="matrix(.8902 0 0 1 290.569 151.758)" class="st11 st12" fill="#569cd6">&lt;?php</text><text transform="matrix(.8902 0 0 1 264.82 173.57)" class="st2 st11 st12">2</text><text transform="matrix(.8902 0 0 1 264.82 195.382)" class="st2 st11 st12">2</text><text transform="matrix(.8902 0 0 1 293.663 195.382)" class="st11 st12" fill="#d9ff5f">print</text><text transform="matrix(.8902 0 0 1 336.433 195.382)" class="st11 st12" fill="#fbb03b">“ Hola mundo ”</text><text transform="matrix(.8902 0 0 1 438.577 195.382)" class="st11 st12" fill="#f2f2f2">;</text></svg>