<svg version="1.1" id="Capa_1" xmlns="http://www.w3.org/2000/svg" x="0" y="0" viewBox="0 0 350 350" xml:space="preserve"><style>.st0,.st3,.st9{stroke-miterlimit:10}.st0{fill:#999;stroke:#fff;stroke-width:8}.st3{stroke:#000}.st9{fill:#fff;stroke:gray}</style><path class="st0" d="M56.2 24.6h238.1c24.6 0 44.5 18.4 44.5 41.2v146c0 22.8-19.9 41.2-44.5 41.2H56.2c-24.6 0-44.5-18.4-44.5-41.2v-146c0-22.7 19.9-41.2 44.5-41.2z"/><path d="M63.2 53.6h212.9c19.1 0 34.6 15.8 34.6 35.2V195h0-271 0V77.5c0-13.1 10.5-23.8 23.5-23.9h0z" fill="#f55" stroke="#fff" stroke-width="8" stroke-miterlimit="10"/><path d="M18.7 192h313.2c1.8 0 3.3 1.2 3.3 2.6v20.1c0 18.9-19.2 34.3-42.9 34.3H55.5c-22.1 0-40.1-14.3-40.1-32v-22.4c0-1.4 1.5-2.6 3.3-2.6z" fill="#ccc"/><path class="st3" d="M120.9 138.4l30.5-12.4c2.2-.9 4.7.2 5.5 2.4.1.2.1.3.2.5.8 2.5-.4 5.3-2.9 6.4l-30.4 12.4c-2.2.9-4.7-.2-5.5-2.4-.1-.2-.1-.4-.2-.5-.8-2.6.4-5.3 2.8-6.4z"/><path class="st3" d="M128.7 110.7l26.1 14.4c2.2 1.4 3 4.3 1.9 6.7-.9 2.3-3.5 3.3-5.7 2.4-.1 0-.2-.1-.4-.2l-26.1-14.4c-2.3-1.4-3.1-4.3-1.9-6.7.9-2.3 3.5-3.4 5.8-2.4.1.1.2.1.3.2zm-45.8 7.9L55 135.9c-2 1.2-4.7.6-5.9-1.5-.1-.2-.2-.3-.2-.5-1.2-2.4-.5-5.3 1.7-6.8l27.9-17.3c2-1.2 4.7-.6 5.9 1.5.1.2.2.3.2.5 1.3 2.4.5 5.3-1.7 6.8z"/><path class="st3" d="M79.9 147.1l-28.1-9.9c-2.5-1-3.7-3.7-2.9-6.3.5-2.4 2.9-3.9 5.3-3.4.1 0 .3.1.4.1l28.1 9.9c2.5 1 3.7 3.7 2.9 6.3-.5 2.4-2.9 3.9-5.3 3.4-.2 0-.3 0-.4-.1zm38.5-48.5l-21.7 59.1c-.8 2.2-3.2 3.3-5.4 2.5-2.2-.8-3.3-3.2-2.5-5.4l21.7-59.1c.8-2.2 3.2-3.3 5.4-2.5 2.2.9 3.3 3.3 2.5 5.4z"/><path d="M176.2 57.1h100.2c17 0 30.8 13.8 30.8 30.8v104.2h-131v-135z" fill="#1e1e1e"/><path fill="none" stroke="#fff" stroke-width="7" stroke-miterlimit="10" d="M11.7 194.6l327-2"/><path fill="none" d="M204.1 110.1h28.6v.5h-28.6z"/><path d="M261.9 324.5H88.4h0c0-17 13.8-30.8 30.8-30.8h112c16.9 0 30.7 13.8 30.7 30.8h0z" fill="#ccc" stroke="#fff" stroke-width="8" stroke-miterlimit="10"/><path class="st0" d="M146.7 254l-10.9 39.5h81.4L203.5 254z"/><ellipse cx="177" cy="224.6" rx="24" ry="18" fill="#1e1e1e" stroke="#fff" stroke-miterlimit="10"/><path class="st9" d="M182.1 216.1l-.2-.2-.2-.1-.1-.2h-.2l-.2-.1-.2-.1-.2-.1h-.1l-.2-.1h-.2l-.2-.1h-.3l-.2-.1H169l-.3-.1-.4-.1-.2-.1-.2-.2-.2-.2-.1-.2-.1-.2v-.9l.1-.2.1-.2.1-.2.2-.2.2-.1.3-.1.5-.1h10.8l.4.1h.6l.5.1.7.2.4.2.6.2.6.2.4.3.4.2.5.4.6.5.3.2.3.4.5.6.3.5.3.5.2.5.1.5.1.5.1.6v1.5l-.2.9-.3.8-.3.6-.4.6-.3.5-.5.5-.6.5-.9.7-1 .5-1 .5-1 .2-.7.2-.9.1h-10.8l-.2-.1-.3-.1-.3-.2-.2-.2-.2-.2-.1-.3v-.7l.1-.4.2-.3.3-.4.4-.2.6-.1h8.4l1.2.1h1c.3-.1.7-.3 1-.4.5-.2 1-.5 1.6-.8.4-.2.7-.5 1-.7.2-.9.5-1.8.7-2.7-.3-.7-.5-1.5-.8-2.2-.4-.2-.7-.5-1.1-.7zm-14.6 11.6l1.2.5h2.4v8.3l-.4.5-.6.5h-1.6l-.3-.5-.3-.3-.1-.5v-7l-.3-.9"/><path class="st9" d="M167.8 216.3l.8.3h2.5v5.5h-2.4l-1.2.4.3-1.4v-4.8zm11.6 11.9l1.8 2.3 1.7 2.1 1.5 1.9 1.7 2.1.7.6.8.3h.8l.6-.5.6-.7v-.8l-1.1-1.2-1-1.2-1-1.4-.8-1.1-1.7-2.2-.4-.7-.3-.3c-.1.2-.3.4-.4.7-.5.1-.9.2-1.4.3-.4-.1-.8-.2-1.2-.4"/></svg>