<svg xmlns="http://www.w3.org/2000/svg" viewBox="0 0 350 350"><path d="M267.6 268.6c-41 0-74.4-35.5-74.4-79 0-43.6 33.4-79 74.4-79 41 0 74.4 35.5 74.4 79 0 43.6-33.4 79-74.4 79zm0-139.6c-31.4 0-57 27.2-57 60.6 0 33.4 25.6 60.6 57 60.6s57-27.2 57-60.6c0-33.4-25.6-60.6-57-60.6z" fill="#ccc"/><path d="M36.1 96.7v89.6c0 57.4 43.8 103.9 97.8 103.9h45.2c54 0 97.8-46.5 97.8-103.9V96.7H36.1z" fill="#dbdbdb"/><path d="M297.1 283.3H16s11.6 21 137.8 21.6h5.5c126.2-.5 137.8-21.6 137.8-21.6z" fill="#c1c1c1"/><path d="M136.8 85.4s-.8-.6-2.1-1.6c-1.3-1.2-3-2.3-5-4.2-1-.9-2.2-2.2-3.2-4-1-2.1-1.6-5-.8-7.6.7-2.4 1.7-4.6 2.9-6.2 1.2-1.5 2.6-3.4 3.7-4.5 2.6-2.6 4.7-4.8 6.3-6.7.5-.9 1.3-1.7 1.4-2.5.5-.8.2-1.8.3-2.8-.5-2.1-1.1-4.3-1.9-5.8-.6-1.5-.9-2.5-.9-2.5s.9.3 2.3 1.1c1.5.7 3.5 2.1 5.5 4.7.7 1.6 2 3.3 1.9 5.7.3 2.4-.5 4.7-1.3 6.7-1 1.8-1.9 3.8-3.2 5.2-1.3 1.6-2.4 2.9-3.6 4.2-1.4 1.4-2.2 2.3-3.3 3.5-.9 1.1-1.7 2-2.1 2.7-.3.6-.6 1-.6 1.9.3 1 .5 2.2 1.1 3.5 1 2.5 1.9 5 2.1 6.6.4 1.6.5 2.6.5 2.6zm36.5 0s-1.1-.8-2.9-2.2c-1.8-1.7-4.2-3.2-7.1-6-1.5-1.2-3.1-3.1-4.6-5.7-1.4-2.9-2.3-7-1.2-10.8.9-3.3 2.4-6.5 4.2-8.7 1.7-2.1 3.7-4.7 5.2-6.3 3.7-3.6 6.6-6.8 8.9-9.5.7-1.3 1.9-2.5 2-3.5.7-1.1.3-2.5.5-4-.7-3-1.6-6.1-2.6-8.2-.8-2.2-1.3-3.5-1.3-3.5s1.2.5 3.3 1.6c2.1 1 4.9 3 7.8 6.6 1 2.2 2.8 4.7 2.6 8.1.4 3.4-.7 6.6-1.8 9.5-1.4 2.6-2.7 5.4-4.5 7.3-1.8 2.3-3.4 4-5 5.9-2 2-3 3.3-4.6 4.9-1.3 1.5-2.3 2.8-3 3.8-.5.8-.8 1.5-.9 2.7.4 1.4.7 3.1 1.5 4.9 1.4 3.5 2.6 7 2.9 9.3.4 2.4.6 3.8.6 3.8z" fill="#a5a5a5"/></svg>