<svg version="1.1" id="Capa_1" xmlns="http://www.w3.org/2000/svg" xmlns:xlink="http://www.w3.org/1999/xlink" x="0" y="0" viewBox="0 0 1600 600" xml:space="preserve"><style>.st2{fill:#e7e7e7}</style><defs><path id="SVGID_1_" d="M0-1056h1600V600.2H0z"/></defs><clipPath id="SVGID_00000067225572159085622080000002387234788742050204_"><use xlink:href="#SVGID_1_" overflow="visible"/></clipPath><g clip-path="url(#SVGID_00000067225572159085622080000002387234788742050204_)"><image width="1832" height="956" xlink:href="3D22F1E5.png" transform="translate(-72 -580)" overflow="visible"/><path class="st2" d="M1225.4-357c-248 0-248-136.3-496-136.3S481.4-357 233.4-357c-124.7 0-186.7-34.5-249.1-68.7v715.3H1704V-493c-230.7 6.2-236.6 136-478.6 136z"/><image width="1832" height="957" xlink:href="3D22F1EB.png" transform="translate(-72 -427)" overflow="visible"/><path class="st2" d="M1472.8-340c-248 0-248 136.3-496.1 136.3-248 0-248-136.3-496-136.3s-248 136.3-496 136.3h-.5v646.5h1719.7v-723.9c-56.8-30.7-118.3-58.9-231.1-58.9z"/><image width="1832" height="957" xlink:href="3D22F1EC.png" transform="translate(-72 -238)" overflow="visible"/><path class="st2" d="M1234.4-14.6c-248 0-248-136.3-496-136.3s-248 136.3-496 136.3c-130.7 0-192.6-37.8-258.1-73.7v720.2H1704v-782.3c-221.9 9.4-230.8 135.8-469.6 135.8z"/><image width="1832" height="956" xlink:href="3D22F1EF.png" transform="translate(-72 -84)" overflow="visible"/><path d="M1544.7 2.3c-248 0-248 136.3-496.1 136.3-248 0-248-136.3-496-136.3s-248 136.3-496 136.3c-26.8 0-50.7-1.6-72.4-4.5v651h1719.7V27.8c-41.1-15.1-90.7-25.5-159.2-25.5z" fill="#1e1e1e"/></g></svg>