<svg version="1.1" id="Layer_1" xmlns="http://www.w3.org/2000/svg" xmlns:xlink="http://www.w3.org/1999/xlink" x="0" y="0" viewBox="0 0 432 288" xml:space="preserve"><style>.st0{fill:#e7e7e7}</style><path class="st0" d="M0 0h432v288H0z"/><defs><path id="SVGID_1_" d="M0 0h432v288H0z"/></defs><clipPath id="SVGID_00000030444469055094429490000005430223847507474074_"><use xlink:href="#SVGID_1_" overflow="visible"/></clipPath><defs><path id="SVGID_00000081634796904128531160000014645306213857614248_" d="M0 0h432v288H0z"/></defs><clipPath id="SVGID_00000031901980526821590570000009657868954921438894_"><use xlink:href="#SVGID_00000081634796904128531160000014645306213857614248_" overflow="visible"/></clipPath><g clip-path="url(#SVGID_00000031901980526821590570000009657868954921438894_)"><image width="2061" height="693" xlink:href="72192666.png" transform="matrix(.24 0 0 .24 -19.48 82.83)" overflow="visible"/><path class="st0" d="M330.8 121.6c-67 0-67-23.7-133.9-23.7-67 0-67 23.7-133.9 23.7-33.7 0-50.4-6-67.3-12V234H460V97.9c-62.2 1.1-63.8 23.7-129.2 23.7z"/><image width="2061" height="693" xlink:href="7219266A.png" transform="matrix(.24 0 0 .24 -19.48 109.47)" overflow="visible"/><path class="st0" d="M397.6 124.5c-67 0-67 23.7-133.9 23.7-67 0-67-23.7-133.9-23.7-67 0-67 23.7-133.9 23.7h-.1v112.4h464.3V134.8c-15.4-5.4-32-10.3-62.5-10.3z"/><image width="2061" height="693" xlink:href="7219266D.png" transform="matrix(.24 0 0 .24 -19.48 142.35)" overflow="visible"/><path class="st0" d="M333.3 181.1c-67 0-67-23.7-133.9-23.7-67 0-67 23.7-133.9 23.7-35.3 0-52-6.6-69.7-12.8v125.2h464.3v-136c-59.9 1.6-62.3 23.6-126.8 23.6z"/><image width="2061" height="693" xlink:href="7219266E.png" transform="matrix(.24 0 0 .24 -19.48 168.99)" overflow="visible"/><path d="M417.1 184c-67 0-67 23.7-133.9 23.7-67 0-67-23.7-133.9-23.7-67 0-67 23.7-133.9 23.7-7.2 0-13.7-.3-19.5-.8v113.2h464.3V188.5c-11.2-2.7-24.6-4.5-43.1-4.5z" fill="#1e1e1e"/></g><defs><path id="SVGID_00000073707844685985600450000005384248976812837249_" d="M0 0h432v288H0z"/></defs><clipPath id="SVGID_00000115475153077685994150000007563751110454729403_"><use xlink:href="#SVGID_00000073707844685985600450000005384248976812837249_" overflow="visible"/></clipPath></svg>